PERFORMER "Alfred Cortot"
TITLE "Great Pianists 20th Century Vol 21 Alfred Cortot CD2)"
FILE "Vol21b - Cortot II.mp3" MP3
  TRACK 01 AUDIO
    PERFORMER "Frederic Chopin" 
	TITLE "Preludes, Op. 28 No. 1 in C"
    INDEX 01 00:00:00
  TRACK 02 AUDIO
    PERFORMER "Frederic Chopin" 
	TITLE "Preludes, Op. 28 No. 2 in A minor"
    INDEX 01 00:39:72
  TRACK 03 AUDIO
    PERFORMER "Frederic Chopin" 
	TITLE "Preludes, Op. 28 No. 3 in G"
    INDEX 01 02:56:52
  TRACK 04 AUDIO
    PERFORMER "Frederic Chopin" 
	TITLE "Preludes, Op. 28 No. 4 in E minor"
    INDEX 01 03:55:35
  TRACK 05 AUDIO
    PERFORMER "Frederic Chopin" 
	TITLE "Preludes, Op. 28 No. 5 in D"
    INDEX 01 05:44:10
  TRACK 06 AUDIO
    PERFORMER "Frederic Chopin" 
	TITLE "Preludes, Op. 28 No. 6 in B minor"
    INDEX 01 06:20:72
  TRACK 07 AUDIO
    PERFORMER "Frederic Chopin" 
	TITLE "Preludes, Op. 28 No. 7 in A"
    INDEX 01 08:11:52
  TRACK 08 AUDIO
    PERFORMER "Frederic Chopin" 
	TITLE "Preludes, Op. 28 No. 8 in F sharp minor"
    INDEX 01 08:49:30
  TRACK 09 AUDIO
    PERFORMER "Frederic Chopin" 
	TITLE "Preludes, Op. 28 No. 9 in E"
    INDEX 01 10:30:30
  TRACK 10 AUDIO
    PERFORMER "Frederic Chopin" 
	TITLE "Preludes, Op. 28 No. 10 in C sharp minor"
    INDEX 01 11:44:02
  TRACK 11 AUDIO
    PERFORMER "Frederic Chopin" 
	TITLE "Preludes, Op. 28 No. 11 in B"
    INDEX 01 12:15:12
  TRACK 12 AUDIO
    PERFORMER "Frederic Chopin" 
	TITLE "Preludes, Op. 28 No. 12 in G sharp minor"
    INDEX 01 12:45:62
  TRACK 13 AUDIO
    PERFORMER "Frederic Chopin" 
	TITLE "Preludes, Op. 28 No. 13 in F sharp"
    INDEX 01 13:53:07
  TRACK 14 AUDIO
    PERFORMER "Frederic Chopin" 
	TITLE "Preludes, Op. 28 No. 14 in E flat minor"
    INDEX 01 16:26:25
  TRACK 15 AUDIO
    PERFORMER "Frederic Chopin" 
	TITLE "Preludes, Op. 28 No. 15 in D flat Raindrop"
    INDEX 01 16:58:57
  TRACK 16 AUDIO
    PERFORMER "Frederic Chopin" 
	TITLE "Preludes, Op. 28 No. 16 in B flat minor"
    INDEX 01 21:44:10
  TRACK 17 AUDIO
    PERFORMER "Frederic Chopin" 
	TITLE "Preludes, Op. 28 No. 17 in A flat"
    INDEX 01 22:46:35
  TRACK 18 AUDIO
    PERFORMER "Frederic Chopin" 
	TITLE "Preludes, Op. 28 No. 18 in F minor"
    INDEX 01 25:24:10
  TRACK 19 AUDIO
    PERFORMER "Frederic Chopin" 
	TITLE "Preludes, Op. 28 No. 19 in E flat"
    INDEX 01 26:11:10
  TRACK 20 AUDIO
    PERFORMER "Frederic Chopin" 
	TITLE "Preludes, Op. 28 No. 20 in C minor"
    INDEX 01 27:26:70
  TRACK 21 AUDIO
    PERFORMER "Frederic Chopin" 
	TITLE "Preludes, Op. 28 No. 21 in B flat"
    INDEX 01 28:51:42
  TRACK 22 AUDIO
    PERFORMER "Frederic Chopin" 
	TITLE "Preludes, Op. 28 No. 22 in G minor"
    INDEX 01 30:29:62
  TRACK 23 AUDIO
    PERFORMER "Frederic Chopin"
	TITLE "Preludes, Op. 28 No. 23 in F"
    INDEX 01 31:15:35
  TRACK 24 AUDIO
    PERFORMER "Frederic Chopin" 
	TITLE "Preludes, Op. 28 No. 24 in D minor"
    INDEX 01 31:57:57
  TRACK 25 AUDIO
    PERFORMER "Maurice Ravel" 
	TITLE "Sonatine, Modere"
    INDEX 01 34:34:00
  TRACK 26 AUDIO
    PERFORMER "Maurice Ravel" 
	TITLE "Sonatine, Mouvement de menuet"
    INDEX 01 38:41:00
  TRACK 27 AUDIO
    PERFORMER "Maurice Ravel" 
	TITLE "Sonatine, Anime"
    INDEX 01 41:25:00
  TRACK 28 AUDIO
    PERFORMER "Claude Debussy" 
	TITLE "Preludes, Book 1, Danseuses de Delphes"
    INDEX 01 45:03:00
  TRACK 29 AUDIO
    PERFORMER "Claude Debussy" 
	TITLE "Preludes, Book 1, Voiles"
    INDEX 01 47:49:00
  TRACK 30 AUDIO
    PERFORMER "Claude Debussy" 
	TITLE "Preludes, Book 1, Le vent dans la plaine"
    INDEX 01 50:35:00
  TRACK 31 AUDIO
    PERFORMER "Claude Debussy" 
	TITLE "Preludes, Book 1, Les sons et les parfums tournent dans lair du soir"
    INDEX 01 52:36:00
  TRACK 32 AUDIO
    PERFORMER "Claude Debussy" 
	TITLE "Preludes, Book 1, Les collines d'Anacapri"
    INDEX 01 55:11:00
  TRACK 33 AUDIO
    PERFORMER "Claude Debussy" 
	TITLE "Preludes, Book 1, Des pas sur la neige"
    INDEX 01 57:58:00
  TRACK 34 AUDIO
    PERFORMER "Claude Debussy" 
	TITLE "Preludes, Book 1, Ce qu'a vu le vent d'Ouest"
    INDEX 01 60:58:00
  TRACK 35 AUDIO
    PERFORMER "Claude Debussy" 
	TITLE "Preludes, Book 1, La fille au cheveux de lin"
    INDEX 01 64:12:00
  TRACK 36 AUDIO
    PERFORMER "Claude Debussy" 
	TITLE "Preludes, Book 1, La serenade interrompue"
    INDEX 01 66:00:00
  TRACK 37 AUDIO
    PERFORMER "Claude Debussy" 
	TITLE "Preludes, Book 1, La cathedrale engloutie"
    INDEX 01 68:12:00
  TRACK 38 AUDIO
    PERFORMER "Claude Debussy" 
	TITLE "Preludes, Book 1, La danse de Puck"
    INDEX 01 72:44:00
  TRACK 39 AUDIO
    PERFORMER "Claude Debussy" 
	TITLE "Preludes, Book 1, Minstrels"
    INDEX 01 75:07:00
